# xmcd
#
# Track frame offsets:
#	150
#	27552
#	49123
#	67551
#	95415
#	125134
#	166406
#	188484
#	207082
#	217112
#	243648
#	258909
#	278236
#	302080
#
# Disc length: 4522 seconds
#
# Revision: 1
# Processed by: cddbd v1.5.1PL0 Copyright (c) Steve Scherf et al.
# Submitted via: CDmax 2.0
#
DISCID=c911a80e
DTITLE=Hot Tuna - The Original Acoustic Hot Tuna - Live in Keene, NH - 12.01.
DTITLE=2000 - d2
DYEAR=2000
DGENRE=Blues
TTITLE0=Hesitation Blues
TTITLE1=Walkin' Blues
TTITLE2=Nobody Knows You When You're Down And Out
TTITLE3=Death Don't Have No Mercy
TTITLE4=I See The Light
TTITLE5=Good Shepherd
TTITLE6=Watch The North Wind Rise
TTITLE7=I Am The Light Of This World
TTITLE8=Another Man Done Gone ->
TTITLE9=Parchman Farm
TTITLE10=A Life Well Lived
TTITLE11=Never Happen No More
TTITLE12=Nine Pound Hammer
TTITLE13=Encore: Water Song
EXTD=12-01-00 \nThe Colonial Theatre\nKeene, NH \nBilled as "Jack and Jorma, Th
EXTD=e Original Acoustic Hot Tuna" \n\nSet 1: \nTrouble in Mind \nHow Long Bl
EXTD=ues \nHome Of The Blues \nThe Terrible Operation \nBeen So Long \nLivin
EXTD=g in the Moment -> \nEmbryonic Journey \nSea Child \n99 Year Blues \nThi
EXTD=rd Week In The Chelsea \nIce Age \nUncle Sam Blues \nSan Francisco Bay B
EXTD=lues \n\nSet 2: \nHesitation Blues \nWalkin' Blues \nNobody Knows You Wh
EXTD=en You're Down And Out \nDeath Don't Have No Mercy \nDo Not Go Gentle \n
EXTD=I See The Light \nGood Shepherd \nWatch The North Wind Rise \nI Am The L
EXTD=ight Of This World \nAnother Man Done Gone -> \nParchman Farm \nA Life W
EXTD=ell Lived \nNever Happen No More \nNine Pound Hammer \n\nEncore: \nWate
EXTD=r Song
EXTT0=
EXTT1=
EXTT2=
EXTT3=
EXTT4=
EXTT5=
EXTT6=
EXTT7=
EXTT8=
EXTT9=
EXTT10=
EXTT11=
EXTT12=
EXTT13=
PLAYORDER=
